<?xml version="1.0" encoding="UTF-8" standalone="no"?>
<!-- Generator: Gravit.io -->
<svg xmlns="http://www.w3.org/2000/svg" xmlns:xlink="http://www.w3.org/1999/xlink" style="isolation:isolate" viewBox="0 0 128 128" width="128pt" height="128pt"><defs><clipPath id="_clipPath_wtSMP44iuYgy6xclTKKp98tYmL0IVB6G"><rect width="128" height="128"/></clipPath></defs><g clip-path="url(#_clipPath_wtSMP44iuYgy6xclTKKp98tYmL0IVB6G)"><defs><linearGradient id="_lgradient_0" x1="0.6249999999999999" y1="-0.027343749999999997" x2="0.49999999999999983" y2="1"><stop offset="1.25%" style="stop-color:#F4F6F9"/><stop offset="19.583333333333332%" style="stop-color:#BBC9D7"/><stop offset="100%" style="stop-color:#666666"/></linearGradient></defs><path d="M 20 0 L 108 0 C 119.038 0 128 8.962 128 20 L 128 108 C 128 119.038 119.038 128 108 128 L 20 128 C 8.962 128 0 119.038 0 108 L 0 20 C 0 8.962 8.962 0 20 0 Z" style="stroke:none;fill:url(#_lgradient_0);stroke-miterlimit:10;"/><path d=" M 89 89 L 104.563 89 C 107.012 89 109 87.012 109 84.563 L 109 23.437 C 109 20.988 107.012 19 104.563 19 L 23.437 19 C 20.988 19 19 20.988 19 23.437 L 19 84.563 C 19 87.012 20.988 89 23.437 89 L 39 89 L 39 103.545 C 39 106.555 41.445 109 44.455 109 L 83.545 109 C 86.555 109 89 106.555 89 103.545 L 89 89 Z " fill="rgb(0,0,0)"/><linearGradient id="_lgradient_1" x1="0.6148625649125765" y1="-0.013588523786356388" x2="0.5000000000000038" y2="1.000000000000001" gradientTransform="matrix(8,0,0,17,33,19)" gradientUnits="userSpaceOnUse"><stop offset="0%" stop-opacity="1" style="stop-color:rgb(255,247,196)"/><stop offset="25%" stop-opacity="1" style="stop-color:rgb(255,221,0)"/><stop offset="82.08333333333333%" stop-opacity="1" style="stop-color:rgb(96,69,0)"/><stop offset="100%" stop-opacity="1" style="stop-color:rgb(57,42,4)"/></linearGradient><rect x="33" y="19" width="8" height="17" transform="matrix(1,0,0,1,0,0)" fill="url(#_lgradient_1)"/><linearGradient id="_lgradient_2" x1="0.6148625649125765" y1="-0.013588523786356388" x2="0.5000000000000038" y2="1.000000000000001" gradientTransform="matrix(8,0,0,17,51,19)" gradientUnits="userSpaceOnUse"><stop offset="0%" stop-opacity="1" style="stop-color:rgb(255,247,196)"/><stop offset="25%" stop-opacity="1" style="stop-color:rgb(255,221,0)"/><stop offset="82.08333333333333%" stop-opacity="1" style="stop-color:rgb(96,69,0)"/><stop offset="100%" stop-opacity="1" style="stop-color:rgb(57,42,4)"/></linearGradient><rect x="51" y="19" width="8" height="17" transform="matrix(1,0,0,1,0,0)" fill="url(#_lgradient_2)"/><linearGradient id="_lgradient_3" x1="0.6148625649125765" y1="-0.013588523786356388" x2="0.5000000000000038" y2="1.000000000000001" gradientTransform="matrix(8,0,0,17,69,19)" gradientUnits="userSpaceOnUse"><stop offset="0%" stop-opacity="1" style="stop-color:rgb(255,247,196)"/><stop offset="25%" stop-opacity="1" style="stop-color:rgb(255,221,0)"/><stop offset="82.08333333333333%" stop-opacity="1" style="stop-color:rgb(96,69,0)"/><stop offset="100%" stop-opacity="1" style="stop-color:rgb(57,42,4)"/></linearGradient><rect x="69" y="19" width="8" height="17" transform="matrix(1,0,0,1,0,0)" fill="url(#_lgradient_3)"/><linearGradient id="_lgradient_4" x1="0.6148625649125765" y1="-0.013588523786356388" x2="0.5000000000000038" y2="1.000000000000001" gradientTransform="matrix(8,0,0,17,87,19)" gradientUnits="userSpaceOnUse"><stop offset="0%" stop-opacity="1" style="stop-color:rgb(255,247,196)"/><stop offset="25%" stop-opacity="1" style="stop-color:rgb(255,221,0)"/><stop offset="82.08333333333333%" stop-opacity="1" style="stop-color:rgb(96,69,0)"/><stop offset="100%" stop-opacity="1" style="stop-color:rgb(57,42,4)"/></linearGradient><rect x="87" y="19" width="8" height="17" transform="matrix(1,0,0,1,0,0)" fill="url(#_lgradient_4)"/></g></svg>